<?xml version="1.0" encoding="UTF-8"?>
<svg version="1.1" viewBox="0 0 154 140" xmlns="http://www.w3.org/2000/svg"><defs><linearGradient id="a" x1="-19.526" x2="131.81" y1="46.483" y2="1.6522" gradientUnits="userSpaceOnUse"><stop stop-color="#fc801d" offset=".09"/><stop stop-color="#b07f61" offset=".23"/><stop stop-color="#577db3" offset=".41"/><stop stop-color="#1e7ce6" offset=".53"/><stop stop-color="#087cfa" offset=".59"/></linearGradient><linearGradient id="c" x1="43.479" x2="97.645" y1="20.837" y2="116.85" gradientUnits="userSpaceOnUse"><stop stop-color="#fe2857" offset="0"/><stop stop-color="#fe295f" offset=".08"/><stop stop-color="#ff2d76" offset=".21"/><stop stop-color="#ff318c" offset=".3"/><stop stop-color="#ea3896" offset=".38"/><stop stop-color="#b248ae" offset=".55"/><stop stop-color="#5a63d6" offset=".79"/><stop stop-color="#087cfa" offset="1"/></linearGradient></defs><g><g fill="url(#a)" stop-color="#000000" style="-inkscape-stroke:none;font-variation-settings:normal"><polygon points="46 22 28 44 19 30" stop-color="#000000" style="-inkscape-stroke:none;font-variation-settings:normal"/><polygon points="28 44 22 44 22 95 31 95 20 100 12 117 0 117 0 22 46 22 33 33" shape-rendering="crispEdges" stop-color="#000000" style="-inkscape-stroke:none;font-variation-settings:normal"/><polygon points="31 95 12 117 4 106" stop-color="#000000" style="-inkscape-stroke:none;font-variation-settings:normal"/></g><g fill="url(#c)" stop-color="#000000" style="-inkscape-stroke:none;font-variation-settings:normal"><polygon points="56 22 62 36 37 44" stop-color="#000000" style="-inkscape-stroke:none;font-variation-settings:normal"/><polygon points="56 22 111 22 111 44 37 44 56 32" shape-rendering="crispEdges" stop-color="#000000" style="-inkscape-stroke:none;font-variation-settings:normal"/><polygon points="116 95 97 117 90 104" stop-color="#000000" style="-inkscape-stroke:none;font-variation-settings:normal"/><polygon points="116 95 100 104 97 117 42 117 42 95" shape-rendering="crispEdges" stop-color="#000000" style="-inkscape-stroke:none;font-variation-settings:normal"/><polygon points="150 0 52 117 3 140 101 22" stop-color="#000000" style="-inkscape-stroke:none;font-variation-settings:normal"/></g><g fill="#087cfa" stop-color="#000000" style="-inkscape-stroke:none;font-variation-settings:normal"><polygon points="141 22 140 40 122 45" stop-color="#000000" style="-inkscape-stroke:none;font-variation-settings:normal"/><polygon points="153 22 153 117 106 117 120 105 125 95 131 95 131 45 122 45 132 36 141 22" shape-rendering="crispEdges" stop-color="#000000" style="-inkscape-stroke:none;font-variation-settings:normal"/><polygon points="125 95 130 110 106 117" stop-color="#000000" style="-inkscape-stroke:none;font-variation-settings:normal"/></g></g></svg>
